<svg width="25" height="24" viewBox="0 0 25 24" fill="none" xmlns="http://www.w3.org/2000/svg">
    <path d="M12.9936 10.87C12.8936 10.86 12.7736 10.86 12.6636 10.87C10.2836 10.79 8.39355 8.84 8.39355 6.44C8.39355 3.99 10.3736 2 12.8336 2C15.2836 2 17.2736 3.99 17.2736 6.44C17.2636 8.84 15.3736 10.79 12.9936 10.87Z" stroke="#8696BB" stroke-width="1.5" stroke-linecap="round" stroke-linejoin="round"/>
    <path d="M7.99347 14.56C5.57347 16.18 5.57347 18.82 7.99347 20.43C10.7435 22.27 15.2535 22.27 18.0035 20.43C20.4235 18.81 20.4235 16.17 18.0035 14.56C15.2635 12.73 10.7535 12.73 7.99347 14.56Z" stroke="#8696BB" stroke-width="1.5" stroke-linecap="round" stroke-linejoin="round"/>
</svg>
